<svg xmlns="http://www.w3.org/2000/svg" width="800" height="600" class="svg-canvas" preserveAspectRatio="none" viewBox="100 100 600 400"><g style="opacity:1;mix-blend-mode:undefined" transform="translate(120 135.974)"><svg xmlns="http://www.w3.org/2000/svg" id="shape_Y1MFRqHJ6u" width="560" height="328.05291235269" class="style-removed" data-parent="shape_Y1MFRqHJ6u" preserveAspectRatio="none" style="background:0 0" viewBox="222.29009226667768 82.52330644317703 383.19672 224.48000000000002"><svg xmlns="http://www.w3.org/2000/svg" id="shape_GhDKMseSsz" width="1406.89544398312" height="1513.89544398312" class="icon custom-icon text brand_word_letter" cursor="move" data-ligature="true" data-parent="shape_GhDKMseSsz" preserveAspectRatio="none" transform="translate(-195.586 -562.944)" viewBox="0 0 1406.89544398312 1513.89544398312"><path fill="#8459f6" stroke="#8459f6" stroke-miterlimit="3" stroke-width="33.351" d="M55.73 0L18.09 0L18.09-156.48L72.98-156.48Q90.23-156.48 104.53-151.85Q118.83-147.22 127.35-136.08Q135.87-124.93 135.87-105.58L135.87-105.58Q135.87-87.07 127.24-75.19Q118.62-63.31 104.63-57.63Q90.65-51.95 74.03-51.95L74.03-51.95L55.73-51.95L55.73 0ZM55.73-126.82L55.73-81.60L72.14-81.60Q85.81-81.60 92.54-87.81Q99.27-94.01 99.27-105.58L99.27-105.58Q99.27-117.36 92.02-122.09Q84.76-126.82 71.09-126.82L71.09-126.82L55.73-126.82Z" transform="translate(631.203 835.948)"/><path fill="#fff" stroke="#fff" stroke-width="0.351" d="M55.73 0L18.09 0L18.09-156.48L72.98-156.48Q90.23-156.48 104.53-151.85Q118.83-147.22 127.35-136.08Q135.87-124.93 135.87-105.58L135.87-105.58Q135.87-87.07 127.24-75.19Q118.62-63.31 104.63-57.63Q90.65-51.95 74.03-51.95L74.03-51.95L55.73-51.95L55.73 0ZM55.73-126.82L55.73-81.60L72.14-81.60Q85.81-81.60 92.54-87.81Q99.27-94.01 99.27-105.58L99.27-105.58Q99.27-117.36 92.02-122.09Q84.76-126.82 71.09-126.82L71.09-126.82L55.73-126.82Z" transform="translate(631.203 835.948)"/></svg><svg xmlns="http://www.w3.org/2000/svg" id="shape_m5SrZGu7uo" width="1446.89544398312" height="1513.89544398312" class="icon custom-icon text brand_word_letter" cursor="move" data-ligature="true" data-parent="shape_m5SrZGu7uo" preserveAspectRatio="none" transform="translate(-312.086 -562.944)" viewBox="0 0 1446.89544398312 1513.89544398312"><path fill="#8459f6" stroke="#8459f6" stroke-miterlimit="3" stroke-width="33.351" d="M51.74 0L18.09 0L18.09-156.48L58.68-156.48L83.50-88.97Q86.44-80.13 89.18-70.67L89.18-70.67Q90.65-65.62 92.12-60.36L92.12-60.36L93.17-60.36Q95.49-67.72 97.59-75.29L97.59-75.29Q99.69-82.24 101.79-88.97L101.79-88.97L125.77-156.48L166.57-156.48L166.57 0L132.29 0L132.29-53.63Q132.29-64.99 133.87-79.71Q135.45-94.43 136.92-106.42L136.92-106.42Q137.13-107.26 137.13-107.89L137.13-107.89L136.29-107.89L123.25-70.46L102.22-13.25L81.60-13.25L60.36-70.46L47.74-107.89L46.90-107.89Q46.90-107.26 47.11-106.42L47.11-106.42Q48.58-94.43 50.16-79.71Q51.74-64.99 51.74-53.63L51.74-53.63L51.74 0Z" transform="translate(631.223 835.948)"/><path fill="#fff" stroke="#fff" stroke-width="0.351" d="M51.74 0L18.09 0L18.09-156.48L58.68-156.48L83.50-88.97Q86.44-80.13 89.18-70.67L89.18-70.67Q90.65-65.62 92.12-60.36L92.12-60.36L93.17-60.36Q95.49-67.72 97.59-75.29L97.59-75.29Q99.69-82.24 101.79-88.97L101.79-88.97L125.77-156.48L166.57-156.48L166.57 0L132.29 0L132.29-53.63Q132.29-64.99 133.87-79.71Q135.45-94.43 136.92-106.42L136.92-106.42Q137.13-107.26 137.13-107.89L137.13-107.89L136.29-107.89L123.25-70.46L102.22-13.25L81.60-13.25L60.36-70.46L47.74-107.89L46.90-107.89Q46.90-107.26 47.11-106.42L47.11-106.42Q48.58-94.43 50.16-79.71Q51.74-64.99 51.74-53.63L51.74-53.63L51.74 0Z" transform="translate(631.223 835.948)"/></svg><svg xmlns="http://www.w3.org/2000/svg" id="shape_MBN9cAwyOG" width="1415.89544398312" height="1513.89544398312" class="icon custom-icon text brand_word_letter" cursor="move" data-ligature="true" data-parent="shape_MBN9cAwyOG" preserveAspectRatio="none" transform="translate(-393.086 -562.944)" viewBox="0 0 1415.89544398312 1513.89544398312"><path fill="#8459f6" stroke="#8459f6" stroke-miterlimit="3" stroke-width="33.351" d="M65.20 0L18.09 0L18.09-156.48L63.10-156.48Q87.07-156.48 104.84-148.49Q122.62-140.49 132.50-123.46Q142.39-106.42 142.39-79.08L142.39-79.08Q142.39-51.95 132.61-34.39Q122.83-16.83 105.48-8.41Q88.12 0 65.20 0L65.20 0ZM55.73-126.61L55.73-30.29L60.78-30.29Q73.40-30.29 83.18-34.70Q92.96-39.12 98.43-49.85Q103.90-60.57 103.90-79.08L103.90-79.08Q103.90-97.80 98.43-108.10Q92.96-118.41 83.18-122.51Q73.40-126.61 60.78-126.61L60.78-126.61L55.73-126.61Z" transform="translate(631.286 835.948)"/><path fill="#fff" stroke="#fff" stroke-width="0.351" d="M65.20 0L18.09 0L18.09-156.48L63.10-156.48Q87.07-156.48 104.84-148.49Q122.62-140.49 132.50-123.46Q142.39-106.42 142.39-79.08L142.39-79.08Q142.39-51.95 132.61-34.39Q122.83-16.83 105.48-8.41Q88.12 0 65.20 0L65.20 0ZM55.73-126.61L55.73-30.29L60.78-30.29Q73.40-30.29 83.18-34.70Q92.96-39.12 98.43-49.85Q103.90-60.57 103.90-79.08L103.90-79.08Q103.90-97.80 98.43-108.10Q92.96-118.41 83.18-122.51Q73.40-126.61 60.78-126.61L60.78-126.61L55.73-126.61Z" transform="translate(631.286 835.948)"/></svg></svg></g></svg>